<svg xmlns="http://www.w3.org/2000/svg" viewBox="0 0 180 180" width="180" height="180">
  <rect width="180" height="180" rx="32" fill="#FF0000"/>
  <path fill="#FFFFFF" d="M52.4 130.5c-2.6 0-4.6-.2-6.2-.5-1.4-.4-2.1-1-2.1-2 0-.4.1-.9.3-1.5.2-.5.6-1.1 1-1.7l19.9-30.1L46.6 65.2c-.4-.7-.8-1.3-1-1.9-.2-.6-.3-1.1-.3-1.5 0-1 .7-1.6 2-2 1.4-.4 3.5-.5 6.3-.5h4.3c2 0 3.6.1 4.9.4 1.4.2 2.5.9 3.2 2.1l10.5 17.7L86.9 61.7c.7-1.2 1.7-2 3.1-2.1 1.4-.3 3.1-.4 5.1-.4h3.9c2.9 0 4.9.2 6.3.5 1.3.4 2 1 2 2 0 .4-.1.8-.4 1.3-.2.5-.5 1.2-.9 1.9L88.3 94.7l19.5 30c.4.7.8 1.4 1.1 2 .3.5.4 1 .4 1.5 0 .7-.7 1.3-2.1 1.7-1.4.5-3.5.7-6.3.7h-4.3c-2 0-3.7-.1-5.1-.4-1.4-.3-2.4-1-3.1-2.1L77.4 110l-11 18.5c-.7 1.2-1.8 1.9-3.2 2.1-1.4.3-3 .4-5 .4h-4z"/>
</svg>
